<?xml version="1.0" encoding="utf-8"?>
<!-- Generator: Adobe Illustrator 18.1.0, SVG Export Plug-In . SVG Version: 6.00 Build 0)  -->
<!DOCTYPE svg PUBLIC "-//W3C//DTD SVG 1.1//EN" "http://www.w3.org/Graphics/SVG/1.1/DTD/svg11.dtd">
<svg version="1.1" id="Layer_1" xmlns="http://www.w3.org/2000/svg" xmlns:xlink="http://www.w3.org/1999/xlink" x="0px" y="0px"
	 viewBox="0 0 153.9 144.6" enable-background="new 0 0 153.9 144.6" xml:space="preserve">
<path fill="#FFFFFF" d="M19.7,56.1l4.1,3.4c0,0,3.9-7.5,7.7-3.1c0,0,1.2,2-0.6,8.3c0,0-0.5,3.3,2.1,5.8l5.2-2.8c0,0-2.3-3.4-0.1-7.4
	c0,0,2.6-9.9-6.1-11.6C32.1,48.7,24.2,48.4,19.7,56.1z"/>
<circle fill="#FFFFFF" cx="38.8" cy="75.2" r="4.4"/>
<path fill="none" stroke="#21B8CF" stroke-width="2" stroke-miterlimit="10" d="M135.9,134.4H31.4c-1,0-1.8-0.8-1.8-1.8V28.8
	c0-1,0.8-1.8,1.8-1.8h104.5c1,0,1.8,0.8,1.8,1.8v103.7C137.7,133.6,136.9,134.4,135.9,134.4z"/>
<path fill="none" stroke="#21B8CF" stroke-width="2" stroke-miterlimit="10" d="M50.6,134.4H31.2c-0.9,0-1.6-0.7-1.6-1.6V28.6
	c0-0.9,0.7-1.6,1.6-1.6h19.4V134.4z"/>
<path fill="none" stroke="#21B8CF" stroke-width="2" stroke-miterlimit="10" d="M135.8,134.4h-20.5V27h20.5c1.1,0,1.9,0.9,1.9,1.9
	v103.5C137.7,133.5,136.9,134.4,135.8,134.4z"/>
<rect x="33.4" y="30.8" fill="#21B8CF" width="14.1" height="14.5"/>
<rect x="33.4" y="59.4" fill="#21B8CF" width="14.1" height="14.5"/>
<rect x="33.4" y="88" fill="#21B8CF" width="14.1" height="14.5"/>
<rect x="33.4" y="116.2" fill="#21B8CF" width="14.1" height="14.5"/>
<rect x="119.5" y="30.8" fill="#21B8CF" width="14.1" height="14.5"/>
<rect x="119.5" y="59.4" fill="#21B8CF" width="14.1" height="14.5"/>
<rect x="119.5" y="88" fill="#21B8CF" width="14.1" height="14.5"/>
<rect x="119.5" y="116.2" fill="#21B8CF" width="14.1" height="14.5"/>
<rect x="50.6" y="88" fill="#21B8CF" width="64.7" height="7.2"/>
<polygon fill="#919396" stroke="#21B8CF" stroke-miterlimit="10" points="40.1,19.4 45.1,5.3 45.1,20.3 54.6,8.8 49.4,22.8 
	62.4,15.3 52.7,26.7 67.4,24 54.4,31.5 69.2,34 54.4,36.5 67.4,43.9 52.7,41.2 62.4,52.7 49.4,45.1 54.6,59.2 45.1,47.6 45.1,62.6 
	40.1,48.5 35,62.6 35.1,47.6 25.6,59.2 30.7,45.1 17.8,52.7 27.5,41.2 12.8,43.9 25.8,36.5 11,34 25.8,31.5 12.8,24 27.5,26.7 
	17.8,15.3 30.7,22.8 25.6,8.8 35.1,20.3 35,5.3 "/>
</svg>
