<?xml version="1.0" encoding="utf-8"?>
<!-- Generator: Adobe Illustrator 18.1.0, SVG Export Plug-In . SVG Version: 6.00 Build 0)  -->
<!DOCTYPE svg PUBLIC "-//W3C//DTD SVG 1.1//EN" "http://www.w3.org/Graphics/SVG/1.1/DTD/svg11.dtd">
<svg version="1.1" id="Layer_1" xmlns="http://www.w3.org/2000/svg" xmlns:xlink="http://www.w3.org/1999/xlink" x="0px" y="0px"
	 viewBox="0 0 612 792" enable-background="new 0 0 612 792" xml:space="preserve">
<path fill="#FFFFFF" d="M146.3,340.7l9.9,8.4c0,0,9.5-18.3,19.1-7.6c0,0,2.8,4.8-1.6,20.3c0,0-1.2,8,5.2,14.3l12.7-6.8
	c0,0-5.6-8.4,0-18.3c0,0,6.4-24.3-15.1-28.6C177.4,322,157.5,321.6,146.3,340.7z"/>
<circle fill="#FFFFFF" cx="193.7" cy="387.6" r="10.7"/>
<path fill="none" stroke="#21B8CF" stroke-width="3" stroke-miterlimit="10" d="M430.7,534H178.2c-4,0-7.2-3.2-7.2-7.2V276.3
	c0-4,3.2-7.2,7.2-7.2h252.5c4,0,7.2,3.2,7.2,7.2v250.5C438.2,530.4,434.6,534,430.7,534z"/>
<path fill="none" stroke="#21B8CF" stroke-miterlimit="10" d="M222.7,534h-45.3c-3.6,0-6.4-2.8-6.4-6.4V275.1c0-3.6,2.8-6.4,6.4-6.4
	h45.3V534z"/>
<path fill="none" stroke="#21B8CF" stroke-miterlimit="10" d="M430.3,534h-47.7V268.7h47.7c4.4,0,7.6,3.6,7.6,7.6V526
	C438.2,530.4,434.6,534,430.3,534z"/>
<rect x="180.1" y="278.3" fill="#21B8CF" width="34.6" height="35.8"/>
<rect x="180.1" y="348.7" fill="#21B8CF" width="34.6" height="35.8"/>
<rect x="180.1" y="419.1" fill="#21B8CF" width="34.6" height="35.8"/>
<rect x="180.1" y="489.1" fill="#21B8CF" width="34.6" height="35.8"/>
<rect x="392.9" y="278.3" fill="#21B8CF" width="34.6" height="35.8"/>
<rect x="392.9" y="348.7" fill="#21B8CF" width="34.6" height="35.8"/>
<rect x="392.9" y="419.1" fill="#21B8CF" width="34.6" height="35.8"/>
<rect x="392.9" y="489.1" fill="#21B8CF" width="34.6" height="35.8"/>
<rect x="222.7" y="419.1" fill="#21B8CF" width="159.9" height="17.9"/>
<circle fill="none" stroke="#21B8CF" stroke-width="3" stroke-miterlimit="10" cx="302.6" cy="401.2" r="265.6"/>
<polygon fill="#919396" stroke="#21B8CF" stroke-miterlimit="10" points="196.8,250.1 209.2,215.1 209.2,252 232.6,223.8 
	219.9,258.4 251.7,239.7 227.9,268 264.4,261.2 232.2,279.5 268.8,285.8 232.2,292.2 264.4,310.5 227.9,303.7 251.7,332 
	219.9,313.3 232.6,347.9 209.2,319.6 209.2,356.6 196.8,321.6 184.5,356.6 184.5,319.6 161.1,347.9 173.8,313.3 142,332 
	165.8,303.7 129.6,310.5 161.5,292.2 125.3,285.8 161.5,279.5 129.6,261.2 165.8,268 142,239.7 173.8,258.4 161.1,223.8 184.5,252 
	184.5,215.1 "/>
</svg>
