<?xml version="1.0" encoding="utf-8"?>
<!-- Generator: Adobe Illustrator 18.1.0, SVG Export Plug-In . SVG Version: 6.00 Build 0)  -->
<!DOCTYPE svg PUBLIC "-//W3C//DTD SVG 1.1//EN" "http://www.w3.org/Graphics/SVG/1.1/DTD/svg11.dtd">
<svg version="1.1" id="Layer_1" xmlns="http://www.w3.org/2000/svg" xmlns:xlink="http://www.w3.org/1999/xlink" x="0px" y="0px"
	 viewBox="0 0 153.9 169.6" enable-background="new 0 0 153.9 169.6" xml:space="preserve">
<path fill="none" stroke="#21B8CF" stroke-width="2" stroke-miterlimit="10" d="M54.3,51.3c0,0,1.2-8,9.5-13
	c7.4-4.5,17-4.6,24.2,0.3c3.6,2.5,7.1,6.4,9,12.7c0,0,15.4-6.8,19.5,11.4c0,0,14.6,2.3,11.2,19c0,0-5.4,15.5-20.2,9
	c0,0-8.8,9-19.9,1.6c0,0-11.1,15.5-25.9-0.7c0,0-21.3,13.7-33.8-11C27.9,80.6,21.9,49.6,54.3,51.3z"/>
<path fill="#21B8CF" d="M65.1,102.4c0,0,11.5,9.9,21.4,0l4,4.4c0,0-12.1,11.5-28.3,0L65.1,102.4z"/>
<path fill="#21B8CF" d="M59,111.9c0,0,15.3,14.9,34.7,0l3.6,4.4c0,0-19.1,17.3-41.9,0.2L59,111.9z"/>
<path fill="#21B8CF" d="M51.2,121.3c0,0,23.1,20.9,49.8,0l3.5,4.7c0,0-27.5,22.9-56,0L51.2,121.3z"/>
</svg>
