<?xml version="1.0" encoding="utf-8"?>
<!-- Generator: Adobe Illustrator 18.1.0, SVG Export Plug-In . SVG Version: 6.00 Build 0)  -->
<!DOCTYPE svg PUBLIC "-//W3C//DTD SVG 1.1//EN" "http://www.w3.org/Graphics/SVG/1.1/DTD/svg11.dtd">
<svg version="1.1" id="Layer_1" xmlns="http://www.w3.org/2000/svg" xmlns:xlink="http://www.w3.org/1999/xlink" x="0px" y="0px"
	 viewBox="0 0 153.9 169.6" enable-background="new 0 0 153.9 169.6" xml:space="preserve">
<polygon fill="#21B8CF" points="31.1,79.9 51.2,79.9 51.2,117.9 35.6,117.9 "/>
<path fill="#21B8CF" d="M54.7,81.7h4.1c0,0,1.1,0.2,3.9-7.7c0,0,5-14.3,14.5-20.7c0,0,4.1-6.8,5.7-18.6c0,0,7.7-2.5,10.2,6.6
	c0,0,3.4,8.4-5.7,23.6c0,0-2.7,4.3,5.2,4.5l16.8,0.5c0,0,4.5,1.3,6.5,5.7c0.7,1.5,0.8,3.3,0.2,4.9c-0.2,0.7-0.6,1.2-1,1.2
	c0,0,5,8.9-0.5,13.2c0,0,3.2,9.1-3.9,14.3c0,0,1.6,9.1-9.8,11.1H75c-1.3,0-2.5-0.3-3.6-0.9c-2.2-1.1-7.3-3-16.7-3V81.7z"/>
<circle fill="none" stroke="#21B8CF" stroke-width="3" stroke-miterlimit="10" cx="77" cy="82.7" r="67.3"/>
</svg>
