<?xml version="1.0" encoding="utf-8"?>
<!-- Generator: Adobe Illustrator 18.1.0, SVG Export Plug-In . SVG Version: 6.00 Build 0)  -->
<!DOCTYPE svg PUBLIC "-//W3C//DTD SVG 1.1//EN" "http://www.w3.org/Graphics/SVG/1.1/DTD/svg11.dtd">
<svg version="1.1" id="Layer_1" xmlns="http://www.w3.org/2000/svg" xmlns:xlink="http://www.w3.org/1999/xlink" x="0px" y="0px"
	 viewBox="0 0 612 606.8" enable-background="new 0 0 612 606.8" xml:space="preserve">
<g id="Ellipse_12_">
	<g>
		<path fill="#8D9092" d="M312.5,34.3C160.9,30.4,34.9,150.1,31,301.6c-3.9,151.5,115.8,277.6,267.3,281.5s277.6-115.8,281.5-267.3
			C583.7,164.3,464,38.2,312.5,34.3z"/>
	</g>
</g>
<g id="Ellipse_2_">
	<g>
		<circle fill="#07B7D0" cx="306.5" cy="309.1" r="274.5"/>
	</g>
</g>
<path fill-rule="evenodd" clip-rule="evenodd" fill="#7ACFDF" d="M581.1,301.7l-549.4-8.7c0,0,12.8-265.7,295.9-258.3
	C327.7,34.7,562.5,46.9,581.1,301.7z"/>
<path opacity="0.41" fill-rule="evenodd" clip-rule="evenodd" fill="#87D6F8" d="M290.3,33.8l9.7,549.3c0,0-265.9-3.9-268.1-287.1
	C31.9,296,36.2,60.9,290.3,33.8z"/>
<g id="Facebook_6_">
	<g>
		<path fill-rule="evenodd" clip-rule="evenodd" fill="#FFFFFF" d="M371,191c11.1,0,39.9-1.1,39.9-1.1v-70.8c0,0-29.1,0-50.5,0
			c-20.9,0-33,3.5-46.7,10.4c-13.7,7-38.3,38.1-43.4,49.2c-5.1,11-7.6,24.5-7.6,46.9v26.7h-49.1l-0.9,78.5h48.2v184.7h84.4V330.9
			h46.6l12.7-78.5h-62c0,0-4.8-43.7,4.4-52.9C351.6,194.7,360.1,191,371,191z"/>
	</g>
</g>
</svg>
