<?xml version="1.0" encoding="utf-8"?>
<!-- Generator: Adobe Illustrator 18.1.0, SVG Export Plug-In . SVG Version: 6.00 Build 0)  -->
<!DOCTYPE svg PUBLIC "-//W3C//DTD SVG 1.1//EN" "http://www.w3.org/Graphics/SVG/1.1/DTD/svg11.dtd">
<svg version="1.1" id="Layer_1" xmlns="http://www.w3.org/2000/svg" xmlns:xlink="http://www.w3.org/1999/xlink" x="0px" y="0px"
	 viewBox="0 0 612 792" enable-background="new 0 0 612 792" xml:space="preserve">
<text transform="matrix(1 0 0 1 15.2515 625.8467)" fill="#21B8CF" font-family="'Tahoma'" font-size="627.0992">V</text>
<polygon fill="#7AD4E2" points="12.6,169.9 55.2,206.3 77.5,169.9 "/>
<polygon fill="#21B8CF" points="391.3,224.5 360.9,346.6 574.1,346.6 562.3,403.3 344.7,398.7 282.8,571.2 542.7,571.2 535.3,625.8 
	330.5,625.6 229.3,625.9 330.5,169.9 594.5,169.9 579.2,224.5 "/>
<polygon fill="#21B8CF" points="55.2,206.3 37.9,244 12.6,169.9 "/>
<polygon fill="#4DC6D9" points="55.2,206.3 114.6,280.9 77.5,169.9 "/>
<polygon fill="#999999" points="37.9,244 114.6,280.9 55.2,206.3 "/>
<polygon fill="#4DC6D9" points="37.9,244 60.7,307.6 114.6,280.9 "/>
<polygon fill="#21B8CF" points="114.6,280.9 81.1,365.9 60.7,307.6 "/>
<polygon fill="#999999" points="114.6,280.9 147.3,378.5 81.1,365.9 "/>
<polygon fill="#CCCCCC" points="81.1,365.9 109.5,450.9 147.3,378.5 "/>
<polygon fill="#7AD4E2" points="109.5,450.9 162.3,424.2 147.3,378.5 "/>
<polygon fill="#21B8CF" points="109.5,450.9 180.5,479.3 162.3,424.2 "/>
<polygon fill="#7AD4E2" points="109.5,450.9 144.9,553.4 180.5,479.3 "/>
<polygon fill="#4DC6D9" points="180.5,479.3 203.3,547.9 144.9,553.4 "/>
<polygon fill="#CCCCCC" points="203.3,547.9 169.4,625.9 144.9,553.4 "/>
<polygon fill="#21B8CF" points="203.3,547.9 307.4,571.2 237.2,625.9 "/>
<polygon fill="#4DC6D9" points="307.4,571.2 229.3,473.1 203.3,547.9 "/>
<polygon fill="#21B8CF" points="307.4,571.2 352.2,571.2 312,625.7 "/>
<polygon fill="#999999" points="352.2,571.2 376,625.7 312,625.7 "/>
<polygon fill="#21B8CF" points="352.2,571.2 434.3,571.2 376,625.7 "/>
<polygon fill="#4DC6D9" points="376,625.7 475.1,625.7 434.3,571.2 "/>
<polygon fill="#7AD4E2" points="434.3,571.2 475.1,625.7 542.7,571.2 "/>
<polygon fill="#CCCCCC" points="229.3,473.1 335.8,453.8 307.4,571.2 "/>
<polygon fill="#999999" points="335.8,453.8 270.3,346.8 229.3,473.1 "/>
<polygon fill="#71D1E1" points="335.8,453.8 349.1,398.7 270.3,346.8 "/>
<polygon fill="#7AD4E2" points="344.7,398.7 360.9,346.6 411.9,400.1 "/>
<polygon fill="#999999" points="411.9,400.1 468.3,346.8 360.9,346.6 "/>
<polygon fill="#4DC6D9" points="360.9,346.6 270.3,346.8 349.1,398.7 "/>
<polygon fill="#21B8CF" points="360.9,346.6 302,253.4 270.3,346.8 "/>
<polygon fill="#999999" points="360.9,346.6 391.3,224.5 300.6,257.4 "/>
<polygon fill="#21B8CF" points="391.3,224.5 330.5,169.9 300.6,257.4 "/>
<polygon fill="#21B8CF" points="391.3,224.5 437.4,169.9 330.5,169.9 "/>
<polygon fill="#4DC6D9" points="391.3,224.5 475.1,224.5 437.4,169.9 "/>
<polygon fill="#CCCCCC" points="475.1,224.5 515.7,169.9 437.4,169.9 "/>
<polygon fill="#21B8CF" points="475.1,224.5 550.6,224.5 515.7,169.9 "/>
<polygon fill="#999999" points="594.5,169.9 550.6,224.5 579.2,224.5 "/>
<polygon fill="#4DC6D9" points="468.3,346.8 498.3,401.9 527.6,346.6 "/>
<polygon fill="#CCCCCC" points="498.3,401.9 562.3,403.3 527.6,346.6 "/>
<polygon fill="#CCCCCC" points="300.6,257.4 281.8,312.8 360.9,346.6 "/>
<polygon fill="#4DC6D9" points="391.3,224.5 311.8,224.5 330.5,169.9 "/>
<polygon fill="#21B8CF" points="437.4,169.9 431.3,224.5 475.1,224.5 "/>
<polygon fill="#21B8CF" points="550.6,224.5 515.7,224.5 515.7,169.9 "/>
<polygon fill="#999999" points="391.3,224.5 370.1,169.9 330.5,169.9 "/>
<polygon fill="#21B8CF" points="374.6,291.5 300.6,257.4 360.9,346.6 "/>
<line fill="#21B8CF" x1="307.4" y1="571.2" x2="391.3" y2="224.5"/>
<polygon fill="#CCCCCC" points="475.1,625.7 478,571.2 542.7,571.2 "/>
<polygon fill="#7AD4E2" points="335.8,453.8 245.3,423.6 229.3,473.1 "/>
<polygon fill="#21B8CF" points="229.3,473.1 324.8,499.3 335.8,453.8 "/>
<path fill="#21B8CF" d="M237.2,625.9"/>
<polygon fill="#4DC6D9" points="203.3,547.9 237.2,625.9 265.7,625.7 "/>
<path fill="#21B8CF" d="M265.7,625.7"/>
<polygon fill="#21B8CF" points="265.7,625.7 307.4,571.2 312,625.7 "/>
<polygon fill="#7AD4E2" points="265.7,625.7 307.4,571.2 203.3,547.9 "/>
<polygon fill="#21B8CF" points="81.1,365.9 131.4,335.3 147.3,378.5 "/>
<polygon fill="#21B8CF" points="55.2,206.3 87.7,200.1 114.6,280.9 "/>
<polygon fill="#21B8CF" points="37.9,244 25,206.3 55.2,206.3 "/>
<polygon fill="#21B8CF" points="468.3,346.8 456.5,401.1 411.9,400.1 "/>
<polygon fill="#7AD4E2" points="550.6,224.5 550.6,169.9 515.7,169.9 "/>
</svg>
