<?xml version="1.0" encoding="utf-8"?>
<!-- Generator: Adobe Illustrator 18.1.0, SVG Export Plug-In . SVG Version: 6.00 Build 0)  -->
<!DOCTYPE svg PUBLIC "-//W3C//DTD SVG 1.1//EN" "http://www.w3.org/Graphics/SVG/1.1/DTD/svg11.dtd">
<svg version="1.1" id="Layer_1" xmlns="http://www.w3.org/2000/svg" xmlns:xlink="http://www.w3.org/1999/xlink" x="0px" y="0px"
	 viewBox="0 0 616.5 490.1" enable-background="new 0 0 616.5 490.1" xml:space="preserve">
<text transform="matrix(1 0 0 1 15.364 476.5866)" font-family="'Tahoma'" font-size="631.7102">V</text>
<polygon fill="#363231" points="12.7,17.3 55.6,54 78.1,17.3 "/>
<polygon points="394.2,72.3 363.6,195.3 578.3,195.3 566.4,252.4 347.2,247.8 284.9,421.5 546.7,421.5 539.2,476.5 332.9,476.3 
	231,476.6 332.9,17.3 598.9,17.3 583.5,72.3 "/>
<polygon fill="#5C5A59" points="55.6,54 38.2,91.9 12.7,17.3 "/>
<polygon fill="#21B8CF" points="55.6,54 115.4,129.1 78.1,17.3 "/>
<polygon points="38.2,91.9 115.4,129.1 55.6,54 "/>
<polygon fill="#5C5A59" points="38.2,91.9 61.1,156 115.4,129.1 "/>
<polygon fill="#363231" points="115.4,129.1 81.7,214.7 61.1,156 "/>
<polygon fill="#21B8CF" points="115.4,129.1 148.4,227.4 81.7,214.7 "/>
<polygon fill="#363231" points="81.7,214.7 110.3,300.4 148.4,227.4 "/>
<polygon fill="#5C5A59" points="110.3,300.4 163.5,273.5 148.4,227.4 "/>
<polygon fill="#363231" points="110.3,300.4 181.8,329 163.5,273.5 "/>
<polygon fill="#5C5A59" points="110.3,300.4 146,403.6 181.8,329 "/>
<polygon fill="#363231" points="181.8,329 204.8,398.1 146,403.6 "/>
<polygon fill="#21B8CF" points="204.8,398.1 170.6,476.6 146,403.6 "/>
<polygon fill="#5C5A59" points="204.8,398.1 309.7,421.5 238.9,476.6 "/>
<polygon fill="#363231" points="309.7,421.5 231,322.7 204.8,398.1 "/>
<polygon fill="#5C5A59" points="309.7,421.5 354.8,421.5 314.3,476.4 "/>
<polygon fill="#363231" points="354.8,421.5 378.8,476.4 314.3,476.4 "/>
<polygon fill="#5C5A59" points="354.8,421.5 437.5,421.5 378.8,476.4 "/>
<polygon fill="#21B8CF" points="378.8,476.4 478.6,476.4 437.5,421.5 "/>
<polygon fill="#363231" points="437.5,421.5 478.6,476.4 546.7,421.5 "/>
<polygon fill="#5C5A59" points="231,322.7 338.3,303.3 309.7,421.5 "/>
<polygon fill="#363231" points="338.3,303.3 272.3,195.5 231,322.7 "/>
<polygon fill="#5C5A59" points="338.3,303.3 351.7,247.8 272.3,195.5 "/>
<polygon fill="#5C5A59" points="347.2,247.8 363.6,195.3 414.9,249.2 "/>
<polygon fill="#363231" points="414.9,249.2 471.7,195.5 363.6,195.3 "/>
<polygon fill="#363231" points="363.6,195.3 272.3,195.5 351.7,247.8 "/>
<polygon fill="#5C5A59" points="363.6,195.3 304.2,101.4 272.3,195.5 "/>
<polygon fill="#363231" points="363.6,195.3 394.2,72.3 302.8,105.4 "/>
<polygon fill="#5C5A59" points="394.2,72.3 332.9,17.3 302.8,105.4 "/>
<polygon fill="#363231" points="394.2,72.3 440.6,17.3 332.9,17.3 "/>
<polygon fill="#5C5A59" points="394.2,72.3 478.6,72.3 440.6,17.3 "/>
<polygon fill="#363231" points="478.6,72.3 519.5,17.3 440.6,17.3 "/>
<polygon fill="#5C5A59" points="478.6,72.3 554.6,72.3 519.5,17.3 "/>
<polygon fill="#5C5A59" points="598.9,17.3 554.6,72.3 583.5,72.3 "/>
<polygon fill="#5C5A59" points="471.7,195.5 502,251 531.5,195.3 "/>
<polygon fill="#363231" points="502,251 566.4,252.4 531.5,195.3 "/>
<polygon points="302.8,105.4 283.9,161.2 363.6,195.3 "/>
<polygon points="394.2,72.3 314.1,72.3 332.9,17.3 "/>
<polygon fill="#21B8CF" points="440.6,17.3 434.5,72.3 478.6,72.3 "/>
<polygon fill="#363231" points="554.6,72.3 519.5,72.3 519.5,17.3 "/>
<polygon fill="#5C5A59" points="394.2,72.3 372.8,17.3 332.9,17.3 "/>
<polygon fill="#21B8CF" points="377.4,139.8 302.8,105.4 363.6,195.3 "/>
<line fill="#363231" x1="309.7" y1="421.5" x2="394.2" y2="72.3"/>
<polygon fill="#5C5A59" points="478.6,476.4 481.5,421.5 546.7,421.5 "/>
<polygon fill="#21B8CF" points="338.3,303.3 247.1,272.9 231,322.7 "/>
<polygon fill="#363231" points="231,322.7 327.2,349.1 338.3,303.3 "/>
<path fill="#363231" d="M238.9,476.6"/>
<polygon fill="#363231" points="204.8,398.1 238.9,476.6 267.7,476.4 "/>
<path fill="#363231" d="M267.7,476.4"/>
<polygon points="267.7,476.4 309.7,421.5 314.3,476.4 "/>
<polygon fill="#5C5A59" points="267.7,476.4 309.7,421.5 204.8,398.1 "/>
<polygon fill="#5C5A59" points="81.7,214.7 132.4,183.9 148.4,227.4 "/>
<polygon fill="#363231" points="55.6,54 88.3,47.7 115.4,129.1 "/>
<polygon fill="#363231" points="38.2,91.9 25.2,54 55.6,54 "/>
<polygon fill="#21B8CF" points="471.7,195.5 459.9,250.2 414.9,249.2 "/>
<polygon fill="#5C5A59" points="554.6,72.3 554.6,17.3 519.5,17.3 "/>
</svg>
