<?xml version="1.0" encoding="utf-8"?>
<!-- Generator: Adobe Illustrator 18.1.0, SVG Export Plug-In . SVG Version: 6.00 Build 0)  -->
<!DOCTYPE svg PUBLIC "-//W3C//DTD SVG 1.1//EN" "http://www.w3.org/Graphics/SVG/1.1/DTD/svg11.dtd">
<svg version="1.1" id="Layer_1" xmlns="http://www.w3.org/2000/svg" xmlns:xlink="http://www.w3.org/1999/xlink" x="0px" y="0px"
	 viewBox="0 0 153.9 169.6" enable-background="new 0 0 153.9 169.6" xml:space="preserve">
<circle fill="none" stroke="#64C3D7" stroke-miterlimit="10" cx="78.1" cy="84.8" r="71.6"/>
<polygon fill="#21B8CF" points="70.8,88.6 94.1,90 103.3,94 111.4,106.1 120.4,106.1 123.7,111 112.9,125.2 83.3,151.2 78.9,148.7 
	80.5,129.3 75.8,125.2 "/>
<polygon fill="#64C3D7" points="75.8,125.2 64.4,115.1 67.8,103.1 67.8,90.3 60.4,94 54.5,88.6 70.8,88.6 "/>
<polygon fill="#21B8CF" points="70.8,88.6 60.1,85.8 53.1,73.1 56.1,68.2 35,47.3 27.3,57.6 26.1,69.2 36.8,81.4 48.4,84.6 
	54.5,88.6 "/>
<polygon fill="#64C3D7" points="35,47.3 42.7,38.2 43,34.8 54.5,30.5 101.5,37.8 106.4,47.3 101.5,44.5 99.5,49.1 91.6,49.1 
	70.8,70.4 56.1,68.2 "/>
<path fill="#363231" d="M75.8,9.9c0,0,25-0.1,23.2,27.5c0,0-1.5,12.8-13.4,27c0,0-5.5,10.1-7.4,25.4l-1.7,2.7L74.2,90
	c0,0,0-12.5-4.7-20.9c0,0-18.6-26.2-16.2-37C53.3,32,55.5,11.8,75.8,9.9z"/>
<circle fill="#21B8CF" cx="76.1" cy="32" r="9.4"/>
<polygon fill="#21B8CF" points="115.5,43.9 130.6,66.4 133.1,99.5 131.6,103.5 137.5,100 138.8,92.6 137.8,73.7 132.6,63.4 
	130.6,56.2 121.2,43.9 "/>
</svg>
