<?xml version="1.0" encoding="utf-8"?>
<!-- Generator: Adobe Illustrator 18.1.0, SVG Export Plug-In . SVG Version: 6.00 Build 0)  -->
<!DOCTYPE svg PUBLIC "-//W3C//DTD SVG 1.1//EN" "http://www.w3.org/Graphics/SVG/1.1/DTD/svg11.dtd">
<svg version="1.1" id="Layer_1" xmlns="http://www.w3.org/2000/svg" xmlns:xlink="http://www.w3.org/1999/xlink" x="0px" y="0px"
	 viewBox="0 0 153.9 149.6" enable-background="new 0 0 153.9 149.6" xml:space="preserve">
<circle fill="#363231" cx="78.5" cy="75.4" r="71.5"/>
<circle fill="none" stroke="#21B8CF" stroke-miterlimit="10" cx="78" cy="75.8" r="62.9"/>
<path fill="#FFFFFF" stroke="#64C3D7" stroke-miterlimit="10" d="M113.8,111.6h-71c-1,0-1.8-0.8-1.8-1.8V39.3c0-1,0.8-1.8,1.8-1.8
	h71c1,0,1.8,0.8,1.8,1.8v70.5C115.7,110.8,114.8,111.6,113.8,111.6z"/>
<path fill="#86CDDE" d="M55.5,111.6H42.6c-0.9,0-1.6-0.7-1.6-1.6V39.1c0-0.9,0.7-1.6,1.6-1.6h12.9V111.6z"/>
<path fill="#86CDDE" d="M113.7,111.6h-13.6V37.5h13.6c1.1,0,1.9,0.9,1.9,1.9v70.3C115.7,110.8,114.8,111.6,113.7,111.6z"/>
<rect x="43.6" y="40.1" fill="#363231" width="9.7" height="10"/>
<rect x="43.6" y="59.9" fill="#363231" width="9.7" height="10"/>
<rect x="43.6" y="79.6" fill="#363231" width="9.7" height="10"/>
<rect x="43.6" y="99.1" fill="#363231" width="9.7" height="10"/>
<rect x="103.1" y="40.1" fill="#363231" width="9.7" height="10"/>
<rect x="103.1" y="59.9" fill="#363231" width="9.7" height="10"/>
<rect x="103.1" y="79.6" fill="#363231" width="9.7" height="10"/>
<rect x="103.1" y="99.1" fill="#363231" width="9.7" height="10"/>
<rect x="55.5" y="79.6" fill="#A5D8E5" width="44.6" height="5"/>
</svg>
