<?xml version="1.0" encoding="utf-8"?>
<!-- Generator: Adobe Illustrator 18.1.0, SVG Export Plug-In . SVG Version: 6.00 Build 0)  -->
<!DOCTYPE svg PUBLIC "-//W3C//DTD SVG 1.1//EN" "http://www.w3.org/Graphics/SVG/1.1/DTD/svg11.dtd">
<svg version="1.1" id="Layer_1" xmlns="http://www.w3.org/2000/svg" xmlns:xlink="http://www.w3.org/1999/xlink" x="0px" y="0px"
	 viewBox="0 0 153.9 149.6" enable-background="new 0 0 153.9 149.6" xml:space="preserve">
<ellipse fill="#363231" cx="76.2" cy="76.6" rx="71.2" ry="67.9"/>
<ellipse fill="none" stroke="#21B8CF" stroke-miterlimit="10" cx="75.8" cy="77.1" rx="62.6" ry="59.7"/>
<g>
	<path fill="#F5F5F0" d="M72.7,71.2c0.8-0.8,1-1.6,1.3-2.4c1.1-3,1.3-6-0.5-8.9c-1.7-2.7-4.3-4.5-7.3-5.7c-4.8-1.9-9.2-4.3-11.9-8.8
		c-0.6-1-2.1-1.4-3.5-1c-0.8,0.2-1.2,0.6-0.9,1.4c0.2,0.6,0.2,1.2,0.4,1.7c3,12.8,6,25.6,9.1,38.5c0.2,0.7,0.4,1.4-0.8,1.1
		c-0.1,0-0.4,0.1-0.5,0.2C57.5,87.9,56.8,88,56,88c-3.1,0.3-5.8,1.6-8,3.6c-3.3,3.1-2.6,8.5,1.5,10.7c2.7,1.5,5.7,1.6,8.6,0.7
		c3.5-1.1,6.1-3.1,7.3-6.6c0.8-2.3,0.1-4.5-0.4-6.7c-2.5-10.5-5.6-20.9-7.6-31.6c-0.1-0.7-0.1-1.1,0.8-0.9c0.7,0.2,1.5,0.2,2.2,0.4
		c4.6,1,8.3,3.1,10.5,7.3C72,66.9,72.4,69,72.7,71.2z M92.7,72.7c1-0.8,1.5-1.6,1.9-2.5c1.3-2.5,1.1-4.8-0.9-6.9
		c-0.9-0.9-1.8-1.7-2.8-2.5c-2.2-1.6-4-3.5-5-6c-0.2-0.5-0.4-1-0.8-1.3c-0.5-0.6-1.2-0.8-2-0.6c-0.8,0.2-0.9,0.8-0.9,1.5
		c-0.1,3.5-0.2,7.1-0.3,10.6c-0.1,5.2-0.3,10.5-0.4,15.7c0,0.2,0,0.5-0.2,0.5c-0.9-0.1-1.6,0.6-2.6,0.5c-2.2-0.2-4.3,0.4-6.1,1.8
		c-2.2,1.7-2.3,4.3-0.2,6.1c1.4,1.2,3,1.7,4.9,1.7c4.1,0.1,7.4-3,7.3-6.7c0-1.5,0-3,0-4.5c0-3.9,0.1-7.7,0.2-11.6
		c0-2.3,0.1-4.6,0.2-7.1C90.5,63.3,93.4,66.7,92.7,72.7z M98.6,77.2c-1,0.2-1.8,0.6-2.5,1.2c-1.8,1.4-1.8,3,0.1,4.3
		c3.3,2.3,7.7,0.7,8.4-3.2c0.9-5.2,1.9-10.4,2.8-15.5c0.1-0.8,0.4-1,1.2-0.5c2.5,1.6,3.9,3.7,3.8,6.7c0,0.3-0.2,0.8,0.2,1
		c0.4,0.2,0.6-0.4,0.9-0.6c1.7-2.1,1.6-4.5-0.3-6.6c-1.6-1.6-3-3.4-3.8-5.5c-0.2-0.6-0.4-1.2-1.2-1.2c-0.8,0-1.1,0.5-1.4,1.1
		c-0.2,0.3-0.2,0.7-0.3,1c-1,5.4-2.1,10.9-3.1,16.3c-0.2,1.2-0.6,1.5-2,1.5C100.4,77.1,99.5,77,98.6,77.2z"/>
</g>
</svg>
