<?xml version="1.0" encoding="utf-8"?>
<!-- Generator: Adobe Illustrator 18.1.0, SVG Export Plug-In . SVG Version: 6.00 Build 0)  -->
<!DOCTYPE svg PUBLIC "-//W3C//DTD SVG 1.1//EN" "http://www.w3.org/Graphics/SVG/1.1/DTD/svg11.dtd">
<svg version="1.1" id="Layer_1" xmlns="http://www.w3.org/2000/svg" xmlns:xlink="http://www.w3.org/1999/xlink" x="0px" y="0px"
	 viewBox="0 0 153.9 169.6" enable-background="new 0 0 153.9 169.6" xml:space="preserve">
<path fill="#333333" d="M45.4,72.1l4.7,4.9l20-4.9l17.5,16.5L82.5,105l5.2,5.9l24.9-14.7V72.1l23-20c0,0,9.4-11.2,9.4-36.5
	c0,0-21.2-2.4-38.9,10.6l-22.4,20l-23,1.2L45.4,72.1z"/>
<circle fill="#FFFFFF" cx="126.7" cy="33.8" r="5.9"/>
<polygon fill="#21B8CF" points="70.2,96.8 74.9,96.8 45.4,149.8 41.3,145.7 "/>
<polygon fill="#21B8CF" points="64,91.5 68.5,92.8 25.1,135.2 22.3,130 "/>
<polygon fill="#21B8CF" points="57.6,84.5 61.6,87 8.6,116.5 7.3,110.8 "/>
</svg>
