<?xml version="1.0" encoding="utf-8"?>
<!-- Generator: Adobe Illustrator 18.1.0, SVG Export Plug-In . SVG Version: 6.00 Build 0)  -->
<!DOCTYPE svg PUBLIC "-//W3C//DTD SVG 1.1//EN" "http://www.w3.org/Graphics/SVG/1.1/DTD/svg11.dtd">
<svg version="1.1" id="Layer_1" xmlns="http://www.w3.org/2000/svg" xmlns:xlink="http://www.w3.org/1999/xlink" x="0px" y="0px"
	 viewBox="0 0 153.9 157.1" enable-background="new 0 0 153.9 157.1" xml:space="preserve">
<circle fill="#363231" cx="77.5" cy="78.4" r="70.3"/>
<circle fill="none" stroke="#21B8CF" stroke-miterlimit="10" cx="77" cy="78.9" r="61.8"/>
<path fill="#F5F5F0" d="M48.4,77.1c0,0,28.6-13.4,32.5-9.5L61.3,55.2l-8.5-4.4l-9.3,11.3l7.5,7.7L48.4,77.1z"/>
<path fill="#21B8CF" d="M61.3,55.2l6.4-2.8l1.9-9.5h14.1l2.6,8.5c0,0,3.1,22.1,3.4,27.9c0,0,0.6-7.4-9.5-12L61.3,55.2z"/>
<path fill="#8ECFDF" d="M89.7,79.2c0,0-0.1,7.7-4.3,10.2l18.7-19.7l6.7-7.9l-8.5-10.4l-9.2,4.1l-6.8-4.1L89.7,79.2z"/>
<path fill="#F5F5F0" d="M75.5,91.9c0,0,6,1.3,10.3-3.4l18.3-18.9l1.8,7l8.5,4.9l-4.6,13.7L75.5,91.9z"/>
<path fill="#21B8CF" d="M66.2,85.7c0,0,3.8,5.9,10.2,6.3l25.4,2.4l-4.9,5.7l2.1,9l-12.6,6.4L66.2,85.7z"/>
<path fill="#64C3D7" d="M65.5,74.9c0,0-1.7,7.1,1.5,12l14.6,21.4l-9-0.3l-5.7,7.5l-11.9-6.8L65.5,74.9z"/>
<path fill="#8ECFDF" d="M65.5,74.9c0,0,2.2-4.8,6.1-6.9c0,0-10.7,2.3-32,13.4l3.9,12.9l9-0.3l5.2,6.4L65.5,74.9z"/>
</svg>
