<?xml version="1.0" encoding="utf-8"?>
<!-- Generator: Adobe Illustrator 18.1.0, SVG Export Plug-In . SVG Version: 6.00 Build 0)  -->
<!DOCTYPE svg PUBLIC "-//W3C//DTD SVG 1.1//EN" "http://www.w3.org/Graphics/SVG/1.1/DTD/svg11.dtd">
<svg version="1.1" id="Layer_1" xmlns="http://www.w3.org/2000/svg" xmlns:xlink="http://www.w3.org/1999/xlink" x="0px" y="0px"
	 viewBox="0 0 616.5 490.1" enable-background="new 0 0 616.5 490.1" xml:space="preserve">
<circle fill="#363231" cx="308.2" cy="245" r="213.4"/>
<path fill="#21B8CF" d="M228,143.2v161.9c0,0,14.9,74.5,87.5,78.2c0,0,82.8,11.3,84.7-31.1c0,0,0-35-41-34c0,0-55.8,6.5-64.2-22.3
	v-44.7l73.5,0.9c0,0,33.5-1.9,31.6-32.6c0,0-1.9-32.6-33.5-31.6h-70.7v-44.7c0,0-11.2-23.3-33.5-20.5
	C262.4,122.7,237.3,121.8,228,143.2z"/>
</svg>
