<?xml version="1.0" encoding="utf-8"?>
<!-- Generator: Adobe Illustrator 18.1.0, SVG Export Plug-In . SVG Version: 6.00 Build 0)  -->
<!DOCTYPE svg PUBLIC "-//W3C//DTD SVG 1.1//EN" "http://www.w3.org/Graphics/SVG/1.1/DTD/svg11.dtd">
<svg version="1.1" id="Layer_1" xmlns="http://www.w3.org/2000/svg" xmlns:xlink="http://www.w3.org/1999/xlink" x="0px" y="0px"
	 viewBox="0 0 612 606.8" enable-background="new 0 0 612 606.8" xml:space="preserve">
<g id="Ellipse_12_">
	<g>
		<path fill="#8D9092" d="M312.5,34.3C160.9,30.4,32.7,151.8,28.8,303.4c-3.9,151.5,117.9,275.8,269.5,279.7
			s277.6-115.8,281.5-267.3C583.7,164.3,464,38.2,312.5,34.3z"/>
	</g>
</g>
<g id="Ellipse_2_">
	<g>
		<path fill="#07B7D0" d="M576.7,260.8C550,111.6,407.4,12.3,258.2,38.9C109,65.6,10.4,199.9,32.7,357.1
			c21.4,150.1,172.8,249,322,222.3C504,552.7,603.4,410.1,576.7,260.8z"/>
	</g>
</g>
<path fill-rule="evenodd" clip-rule="evenodd" fill="#7ACFDF" d="M560.1,415.9L67.5,172.6c0,0,111.4-231.5,378.1-106.6
	C445.6,66,652.5,177.7,560.1,415.9z"/>
<path opacity="0.41" fill-rule="evenodd" clip-rule="evenodd" fill="#87D6F8" d="M292,28.8l9,555.3c0,0-270-1.2-272.2-284.4
	C28.8,299.7,37.9,55.9,292,28.8z"/>
<g id="Twitter_2_">
	<g>
		<path fill-rule="evenodd" clip-rule="evenodd" fill="#FFFFFF" d="M465.9,267.2c-5.4,3.3-16.8,5.7-16.8,5.7
			c-11.8,2.2-3.6-8.3-3.6-8.3c13.6-6.5,26.8-29.8,26.8-29.8c0.7-7.6-4.3-4.4-4.3-4.4c-4.6,0.6-23,12.5-23,12.5
			c-12.2,12-15.9,0.4-15.9,0.4c0-48.6-64.3-53.3-64.3-53.3c-4.6-0.7-5.7-8.1-0.4-8.4c5.4-0.4,20.1-16.9,20.1-16.9
			c4.6-10.2-10.7-4-10.7-4c-4.3,3.3-7.9-2.2-7.9-2.2c-3.6-3.6-14.4,0.7-14.4,0.7c-2.5,4-15,1.5-15,1.5c-39,6.9-68.7,92.7-68.7,92.7
			c-0.7,8-6.8-0.4-6.8-0.4C236.8,209.2,215,237,215,237c-4.6,4.7,5,10.5,5,10.5c3.2,3.6-3.2,10.6-3.2,10.6
			c-11.4-5.1-13.9,1.1-13.9,1.1c-1.4,1.5,5.7,8.8,10,12.1c4.3,3.3-0.4,5-0.4,5c-6.8-1.8-27.8-4.7-27.8-4.7c-7.1,0.7,1.8,8.7,1.8,8.7
			c5.7,3.6-8.8,32.2-8.8,32.2c-10.4-1.8-10,6.2-10,6.2c-5.7,14.1,69.3,23.1,69.3,23.1c8.2,4.4,2.1,13.3,2.1,13.3
			c-18,28.8-44.3,18.1-44.3,18.1c-19.7,0-67-17-67-17c-8.2-1.8,2.2,9.4,2.2,9.4c53.6,63.9,135.6,64,135.6,64
			c163.7,0,167.6-132.4,167.6-132.4c0-4,4.3-5.1,4.3-5.1c6.4,0,35.8-19.3,35.8-19.3C479.9,260.3,465.9,267.2,465.9,267.2z"/>
	</g>
</g>
</svg>
