<?xml version="1.0" encoding="utf-8"?>
<!-- Generator: Adobe Illustrator 18.1.0, SVG Export Plug-In . SVG Version: 6.00 Build 0)  -->
<!DOCTYPE svg PUBLIC "-//W3C//DTD SVG 1.1//EN" "http://www.w3.org/Graphics/SVG/1.1/DTD/svg11.dtd">
<svg version="1.1" id="Layer_1" xmlns="http://www.w3.org/2000/svg" xmlns:xlink="http://www.w3.org/1999/xlink" x="0px" y="0px"
	 viewBox="0 0 616.5 490.1" enable-background="new 0 0 616.5 490.1" xml:space="preserve">
<circle fill="#363231" cx="297.9" cy="245" r="212.4"/>
<path fill="#F5F5F0" stroke="#21B8CF" stroke-width="3" stroke-miterlimit="10" d="M389.8,339.6H205.9c-1,0-1.8-0.8-1.8-1.8V155.2
	c0-1,0.8-1.8,1.8-1.8h183.9c1,0,1.8,0.8,1.8,1.8v182.6C391.7,338.8,390.8,339.6,389.8,339.6z"/>
<path fill="none" stroke="#21B8CF" stroke-width="3" stroke-miterlimit="10" d="M240.5,339.6h-34.9c-0.9,0-1.6-0.7-1.6-1.6V154.9
	c0-0.9,0.7-1.6,1.6-1.6h34.9V339.6z"/>
<path fill="none" stroke="#21B8CF" stroke-width="3" stroke-miterlimit="10" d="M389.7,339.6h-37V153.3h37c1.1,0,1.9,0.9,1.9,1.9
	v182.4C391.7,338.7,390.8,339.6,389.7,339.6z"/>
<rect x="210.7" y="160" fill="#21B8CF" width="24.4" height="25.1"/>
<rect x="210.7" y="209.5" fill="#21B8CF" width="24.4" height="25.1"/>
<rect x="210.7" y="259.1" fill="#21B8CF" width="24.4" height="25.1"/>
<rect x="210.7" y="308" fill="#21B8CF" width="24.4" height="25.1"/>
<rect x="360" y="160" fill="#21B8CF" width="24.4" height="25.1"/>
<rect x="360" y="209.5" fill="#21B8CF" width="24.4" height="25.1"/>
<rect x="360" y="259.1" fill="#21B8CF" width="24.4" height="25.1"/>
<rect x="360" y="308" fill="#21B8CF" width="24.4" height="25.1"/>
<rect x="240.5" y="259.1" fill="#21B8CF" width="112.2" height="12.6"/>
<circle fill="none" stroke="#21B8CF" stroke-width="3" stroke-miterlimit="10" cx="296.6" cy="246.5" r="186.6"/>
</svg>
