<?xml version="1.0" encoding="utf-8"?>
<!-- Generator: Adobe Illustrator 18.1.0, SVG Export Plug-In . SVG Version: 6.00 Build 0)  -->
<!DOCTYPE svg PUBLIC "-//W3C//DTD SVG 1.1//EN" "http://www.w3.org/Graphics/SVG/1.1/DTD/svg11.dtd">
<svg version="1.1" id="Layer_1" xmlns="http://www.w3.org/2000/svg" xmlns:xlink="http://www.w3.org/1999/xlink" x="0px" y="0px"
	 viewBox="0 0 612 792" enable-background="new 0 0 612 792" xml:space="preserve">
<g>
	<circle fill="#363231" cx="317.1" cy="396" r="130.2"/>
	<path fill="#F5F5F0" stroke="#21B8CF" stroke-width="3" stroke-miterlimit="10" d="M373.4,454H260.7c-0.6,0-1.1-0.5-1.1-1.1V341
		c0-0.6,0.5-1.1,1.1-1.1h112.7c0.6,0,1.1,0.5,1.1,1.1v111.9C374.6,453.5,374.1,454,373.4,454z"/>
	<path fill="none" stroke="#21B8CF" stroke-width="3" stroke-miterlimit="10" d="M281.9,454h-21.4c-0.6,0-1-0.4-1-1V340.8
		c0-0.6,0.4-1,1-1h21.4V454z"/>
	<path fill="none" stroke="#21B8CF" stroke-width="3" stroke-miterlimit="10" d="M373.4,454h-22.7V339.8h22.7c0.7,0,1.2,0.6,1.2,1.2
		v111.8C374.6,453.4,374.1,454,373.4,454z"/>
	<rect x="263.7" y="343.9" fill="#21B8CF" width="15" height="15.4"/>
	<rect x="263.7" y="374.2" fill="#21B8CF" width="15" height="15.4"/>
	<rect x="263.7" y="404.6" fill="#21B8CF" width="15" height="15.4"/>
	<rect x="263.7" y="434.6" fill="#21B8CF" width="15" height="15.4"/>
	<rect x="355.2" y="343.9" fill="#21B8CF" width="15" height="15.4"/>
	<rect x="355.2" y="374.2" fill="#21B8CF" width="15" height="15.4"/>
	<rect x="355.2" y="404.6" fill="#21B8CF" width="15" height="15.4"/>
	<rect x="355.2" y="434.6" fill="#21B8CF" width="15" height="15.4"/>
	<rect x="281.9" y="404.6" fill="#21B8CF" width="68.8" height="7.7"/>
	<circle fill="none" stroke="#21B8CF" stroke-width="3" stroke-miterlimit="10" cx="316.3" cy="396.9" r="114.4"/>
</g>
</svg>
