<?xml version="1.0" encoding="utf-8"?>
<!-- Generator: Adobe Illustrator 18.1.0, SVG Export Plug-In . SVG Version: 6.00 Build 0)  -->
<!DOCTYPE svg PUBLIC "-//W3C//DTD SVG 1.1//EN" "http://www.w3.org/Graphics/SVG/1.1/DTD/svg11.dtd">
<svg version="1.1" id="Layer_1" xmlns="http://www.w3.org/2000/svg" xmlns:xlink="http://www.w3.org/1999/xlink" x="0px" y="0px"
	 viewBox="0 0 153.9 169.6" enable-background="new 0 0 153.9 169.6" xml:space="preserve">
<path fill="#21B8CF" d="M37.8,122.3c0,0,25.8,9.1,41.3,37.9c0,0,7.3-31.7,23.2-29.4c0,0,21.5,5.6,22.2-5.6c0,0-2.6-7.3,3-10.9
	c0,0,1-1.1-0.9-4.5c0,0,4-1.1,3.7-4.3c0,0-0.7-5.5,0-6.8c0,0-0.8-0.6,4.9-1.5c0,0,3.3,0.1,3-3.9l-9.2-16.5c0,0-1.6-4.7,2.2-11
	c0,0,3.9-13.9-5.9-29.7c0,0-17.1-31.5-73.6-18.2c0,0-18.8,4.8-34.2,34.9c0,0-8.6,19.3,13.3,41.4C30.7,94.4,43.1,106.2,37.8,122.3z"
	/>
<path fill="#FFFFFF" d="M50.7,42.3l5.9,8.1c0,0,10.7-11.9,15.7-2.1c0,0,1.2,4.2-5,14.9c0,0-2.4,5.8,1.2,11.7l10.9-2.7
	c0,0-2.6-7.3,3.3-13.6c0,0,9.5-16.9-5.7-24.2C77,34.4,62.5,30.1,50.7,42.3z"/>
<circle fill="#FFFFFF" cx="76.9" cy="86.3" r="8.4"/>
<path fill="#FFFFFF" d="M95.5,35.9l1.5,5.5c0,0,8-4.1,8.7,2.1c0,0-0.2,2.4-5.6,6.8c0,0-2.4,2.6-1.8,6.4l6.3,0.8c0,0,0.1-4.4,4.5-6.5
	c0,0,8.4-6.9,1.9-13.8C110.9,37.1,104.2,31.9,95.5,35.9z"/>
<circle fill="#FFFFFF" cx="100.3" cy="64.3" r="4.7"/>
<path fill="#FFFFFF" d="M35.4,67.4l2.6,2.2c0,0,2.5-4.8,5-2c0,0,0.7,1.3-0.4,5.4c0,0-0.3,2.1,1.4,3.8l3.4-1.8c0,0-1.5-2.2-0.1-4.8
	c0,0,1.7-6.4-3.9-7.5C43.5,62.6,38.3,62.4,35.4,67.4z"/>
<circle fill="#FFFFFF" cx="47.8" cy="79.8" r="2.8"/>
</svg>
